<svg width="100" height="100" viewBox="0 0 100 100" xmlns="http://www.w3.org/2000/svg">
  <style>
    .tribal-pattern {
      fill: #ec6d13;
      stroke: none;
    }
  </style>
  <g class="tribal-pattern">
    <path d="M10,10 L20,10 L20,20 L30,20 L30,10 L40,10 L40,20 L30,30 L40,40 L30,40 L20,30 L10,30 Z" />
    <path d="M60,10 L70,10 L80,20 L80,30 L70,40 L60,40 L50,30 L50,20 Z" />
    <path d="M10,50 L20,50 L30,60 L30,70 L20,80 L10,80 L10,70 L20,60 L10,60 Z" />
    <path d="M50,50 L60,50 L70,50 L80,60 L70,70 L60,70 L50,60 Z" />
    <circle cx="85" cy="85" r="8" />
    <circle cx="65" cy="85" r="5" />
    <circle cx="85" cy="65" r="5" />
  </g>
</svg>
