<svg width="100" height="100" viewBox="0 0 100 100" xmlns="http://www.w3.org/2000/svg">
  <style>
    .tribal-pattern {
      fill: #483323;
      stroke: none;
    }
  </style>
  <g class="tribal-pattern">
    <path d="M20,10 L30,20 L40,10 L50,20 L60,10 L70,20 L80,10 L90,20 L80,30 L70,20 L60,30 L50,20 L40,30 L30,20 L20,30 L10,20 Z" />
    <path d="M10,40 L20,50 L10,60 L20,70 L10,80 L20,90 L30,80 L20,70 L30,60 L20,50 L30,40 L40,50 L50,40 L60,50 L70,40 L80,50 L90,40 L80,50 L90,60 L80,70 L90,80 L80,90 L70,80 L80,70 L70,60 L80,50 L70,40 Z" />
    <circle cx="50" cy="50" r="10" />
    <circle cx="30" cy="30" r="5" />
    <circle cx="70" cy="30" r="5" />
    <circle cx="30" cy="70" r="5" />
    <circle cx="70" cy="70" r="5" />
  </g>
</svg>
