<svg width="120" height="120" viewBox="0 0 120 120" xmlns="http://www.w3.org/2000/svg">
  <style>
    .tribal-pattern {
      fill: #ec6d13;
      stroke: #483323;
      stroke-width: 1;
    }
    .accent {
      fill: #483323;
    }
  </style>
  <g>
    <!-- Patrón de borde tribal africano -->
    <path class="tribal-pattern" d="M10,10 L20,5 L30,10 L40,5 L50,10 L60,5 L70,10 L80,5 L90,10 L100,5 L110,10 L110,20 L115,30 L110,40 L115,50 L110,60 L115,70 L110,80 L115,90 L110,100 L110,110 L100,115 L90,110 L80,115 L70,110 L60,115 L50,110 L40,115 L30,110 L20,115 L10,110 L10,100 L5,90 L10,80 L5,70 L10,60 L5,50 L10,40 L5,30 L10,20 Z" />
    
    <!-- Elementos gráficos internos -->
    <circle class="accent" cx="60" cy="60" r="30" />
    <circle class="tribal-pattern" cx="60" cy="60" r="25" />
    
    <!-- Detalles decorativos -->
    <path class="accent" d="M60,35 L65,45 L75,45 L67,55 L70,65 L60,60 L50,65 L53,55 L45,45 L55,45 Z" />
    
    <!-- Puntos decorativos -->
    <circle class="accent" cx="30" cy="30" r="4" />
    <circle class="accent" cx="90" cy="30" r="4" />
    <circle class="accent" cx="30" cy="90" r="4" />
    <circle class="accent" cx="90" cy="90" r="4" />
    
    <!-- Líneas decorativas -->
    <line x1="10" y1="60" x2="30" y2="60" stroke="#483323" stroke-width="2" />
    <line x1="90" y1="60" x2="110" y2="60" stroke="#483323" stroke-width="2" />
    <line x1="60" y1="10" x2="60" y2="30" stroke="#483323" stroke-width="2" />
    <line x1="60" y1="90" x2="60" y2="110" stroke="#483323" stroke-width="2" />
  </g>
</svg>
