<?xml version="1.0" standalone="no"?>
<!DOCTYPE svg PUBLIC "-//W3C//DTD SVG 20010904//EN"
 "http://www.w3.org/TR/2001/REC-SVG-20010904/DTD/svg10.dtd">
<svg version="1.0" xmlns="http://www.w3.org/2000/svg"
 width="225.000000pt" height="225.000000pt" viewBox="0 0 225.000000 225.000000"
 preserveAspectRatio="xMidYMid meet">

<g transform="translate(0.000000,225.000000) scale(0.100000,-0.100000)"
fill="#ec6d13" stroke="none">
<path d="M825 2230 c-148 -28 -258 -118 -333 -269 -34 -69 -37 -83 -40 -177
-4 -113 9 -178 53 -256 34 -61 48 -72 135 -101 88 -29 183 -40 234 -26 34 9
38 8 74 -31 62 -64 123 -49 153 38 16 45 33 35 40 -24 6 -52 22 -98 37 -108
10 -6 38 22 63 63 15 23 14 27 -9 60 -20 30 -23 44 -18 81 3 24 11 49 18 55 8
7 9 5 5 -7 -4 -11 0 -18 11 -21 16 -4 15 -5 0 -6 -12 -1 -18 -9 -18 -24 0 -30
10 -40 27 -26 10 9 13 6 14 -17 0 -24 2 -26 8 -10 5 14 10 16 15 8 4 -7 4 -16
1 -22 -3 -5 -1 -10 4 -10 6 0 11 10 11 23 1 21 1 21 14 4 13 -16 15 -16 30 -2
19 19 21 51 4 58 -10 4 -10 6 0 6 6 1 12 8 12 17 0 14 -3 14 -15 4 -9 -8 -15
-8 -15 -2 0 6 5 12 12 14 6 2 8 10 4 17 -6 9 -11 9 -24 -1 -15 -10 -15 -10 -4
2 10 12 9 18 -10 32 -13 10 -18 18 -13 17 11 0 41 -24 70 -57 10 -13 22 -44
25 -70 5 -45 7 -47 43 -56 20 -5 37 -13 37 -18 0 -12 -22 -9 -54 7 -28 15 -31
15 -53 -10 -13 -14 -33 -25 -44 -25 -15 0 -19 -5 -15 -15 3 -8 1 -15 -4 -15
-6 0 -10 -18 -10 -40 0 -29 -4 -40 -15 -40 -8 0 -15 -4 -15 -10 0 -5 -4 -10
-9 -10 -5 0 -2 14 6 31 9 17 19 47 23 65 7 29 5 34 -9 34 -12 0 -22 -14 -31
-40 -14 -44 -33 -65 -49 -56 -5 4 -13 1 -16 -4 -4 -6 -18 -15 -31 -20 -13 -5
-29 -21 -34 -35 -6 -16 -15 -23 -25 -19 -10 4 -18 -3 -25 -22 -6 -16 -15 -31
-20 -34 -16 -10 -141 -183 -180 -249 -49 -86 -65 -124 -94 -241 l-24 -95 -162
-3 -162 -3 6 -236 c4 -130 9 -239 11 -242 3 -2 156 -7 340 -9 l335 -5 6 -23
c5 -20 13 -24 43 -24 30 0 40 5 51 24 7 13 22 27 34 30 11 3 109 6 216 6 107
0 239 3 293 7 l97 6 0 239 0 238 -78 0 -79 0 -37 54 c-31 45 -36 60 -31 88 8
48 -23 95 -70 104 -32 6 -36 9 -30 28 22 68 1 129 -50 142 -28 7 -31 20 -10
47 16 22 11 42 -18 74 l-19 22 41 75 c22 41 50 100 61 130 28 73 62 100 153
120 46 11 82 25 93 37 17 19 17 22 2 49 -15 27 -15 30 3 46 13 12 16 21 9 28
-5 5 -10 18 -10 28 0 10 -6 18 -14 18 -21 0 -30 19 -16 35 20 24 5 40 -54 60
-46 16 -53 21 -36 27 11 4 20 15 20 24 0 11 -5 14 -17 9 -37 -15 -47 -10 -59
31 -19 63 -39 97 -84 138 -59 53 -126 94 -186 113 -36 11 -56 24 -63 40 -8 18
-18 23 -49 23 -32 0 -39 4 -48 28 -19 49 -108 78 -149 48 -16 -12 -25 -12 -55
-1 -48 18 -107 24 -155 15z m490 -730 c3 -5 2 -17 -3 -26 -8 -14 -10 -14 -21
0 -13 15 -8 36 9 36 5 0 12 -4 15 -10z m-68 -32 c-3 -8 -6 -5 -6 6 -1 11 2 17
5 13 3 -3 4 -12 1 -19z m113 -18 c0 -5 -4 -10 -9 -10 -6 0 -13 5 -16 10 -3 6
1 10 9 10 9 0 16 -4 16 -10z m109 -22 c0 -13 -3 -17 -6 -10 -2 6 -9 10 -14 6
-5 -3 -9 -1 -9 5 0 5 -8 12 -17 14 -10 3 -3 5 15 6 27 1 32 -2 31 -21z m-259
-73 c-13 -14 -26 -22 -29 -19 -3 3 5 14 19 24 34 27 38 25 10 -5z m222 18 c-6
-2 -9 -10 -6 -15 4 -7 2 -8 -5 -4 -13 9 -5 26 12 25 9 0 8 -2 -1 -6z m-57 -23
c10 8 15 8 21 -1 4 -8 3 -9 -5 -5 -6 4 -14 0 -17 -9 -6 -13 -8 -14 -15 -3 -5
7 -8 18 -8 23 0 6 3 4 6 -3 4 -9 8 -10 18 -2z m-39 -45 c-4 -14 -12 -25 -18
-25 -9 0 -9 3 0 12 7 7 12 23 13 38 0 14 3 19 6 12 3 -7 2 -24 -1 -37z m130
33 c5 -7 2 -9 -9 -5 -18 7 -32 -19 -15 -29 7 -4 8 -3 4 4 -4 7 -3 12 3 12 5 0
12 -4 15 -9 9 -14 -25 -23 -40 -10 -20 16 -17 -1 3 -23 12 -14 13 -17 2 -13
-16 6 -52 65 -39 65 4 0 10 -5 12 -12 3 -8 11 -5 23 10 22 25 31 27 41 10z
m-66 -86 c0 -25 -21 -26 -28 -1 -3 11 -2 11 7 -1 12 -17 14 -10 5 14 -3 9 -10
14 -14 11 -5 -3 -6 4 -3 15 5 19 6 20 19 3 7 -10 14 -28 14 -41z m-45 19 c0
-17 -7 -34 -17 -40 -12 -7 -18 -8 -18 -1 0 5 5 10 10 10 6 0 10 11 10 23 0 19
7 37 14 37 1 0 1 -13 1 -29z m-25 -11 c0 -5 -5 -10 -11 -10 -5 0 -7 5 -4 10 3
6 8 10 11 10 2 0 4 -4 4 -10z m-97 -265 c-3 -9 -8 -14 -10 -11 -3 3 -2 9 2 15
9 16 15 13 8 -4z m43 -21 c-4 -14 -9 -24 -12 -21 -3 2 -2 17 2 31 3 15 9 25
11 22 3 -3 2 -17 -1 -32z m44 -1 c-1 -21 -13 -53 -22 -53 -5 0 -5 7 0 18 5 9
7 23 5 30 -3 6 0 12 6 12 6 0 11 -3 11 -7z m40 -24 c0 -6 -4 -7 -10 -4 -5 3
-10 11 -10 16 0 6 5 7 10 4 6 -3 10 -11 10 -16z m165 -30 c18 -34 19 -65 3
-75 -8 -5 -9 0 -5 16 6 24 -17 80 -33 80 -6 0 -10 4 -10 10 0 18 31 -3 45 -31z
m-132 -40 c-5 -5 -6 11 -3 34 4 41 5 41 8 8 2 -18 0 -37 -5 -42z m67 -1 c0
-15 -5 -28 -11 -28 -7 0 -9 10 -5 25 4 14 2 35 -4 48 -11 21 -11 21 4 3 9 -11
16 -32 16 -48z m40 -9 c0 -16 -5 -29 -11 -29 -6 0 -8 9 -4 20 4 11 -1 35 -9
53 l-16 32 20 -24 c11 -13 20 -36 20 -52z m-147 36 c-7 -21 -13 -19 -13 6 0
11 4 18 10 14 5 -3 7 -12 3 -20z m-106 9 c-3 -3 -12 -4 -19 -1 -8 3 -5 6 6 6
11 1 17 -2 13 -5z m98 -64 c-3 -5 -18 -9 -33 -9 l-27 1 30 8 c17 4 31 8 33 9
2 0 0 -3 -3 -9z m25 -37 c0 -12 7 -14 32 -9 19 4 28 3 23 -2 -6 -5 -26 -12
-45 -15 -19 -3 -30 -3 -23 -1 9 4 9 13 3 30 -7 17 -7 23 0 19 6 -3 10 -13 10
-22z m90 -23 c6 -11 8 -20 6 -20 -3 0 -10 9 -16 20 -6 11 -8 20 -6 20 3 0 10
-9 16 -20z m93 -8 c2 7 4 1 4 -14 1 -31 -11 -28 -29 5 -10 19 -9 20 4 9 13
-10 17 -10 21 0z m-113 -12 c0 -5 -5 -10 -11 -10 -5 0 -7 5 -4 10 3 6 8 10 11
10 2 0 4 -4 4 -10z m135 -46 c-8 -20 -18 -34 -22 -31 -3 4 -1 12 4 19 6 7 14
27 18 43 4 17 9 25 12 18 2 -6 -3 -28 -12 -49z m-66 42 c-15 -13 -69 -35 -69
-27 0 5 12 14 28 19 28 11 48 15 41 8z m-5 -42 c3 -8 2 -12 -4 -9 -6 3 -10 10
-10 16 0 14 7 11 14 -7z m-224 -133 c-6 -12 -7 -21 -1 -21 5 0 12 6 14 13 4 9
6 9 6 -1 1 -13 -26 -28 -35 -20 -2 3 0 18 6 33 6 15 13 25 16 22 3 -3 1 -15
-6 -26z m-27 -32 c4 -16 3 -18 -9 -8 -16 13 -19 29 -5 29 5 0 11 -9 14 -21z
m2 -29 c22 -11 45 -20 52 -20 7 0 13 -7 13 -15 0 -15 -3 -15 -83 19 -21 9 -43
13 -50 9 -7 -4 -7 0 2 10 17 21 18 21 66 -3z m-39 -70 c43 -17 51 -11 14 11
-43 26 -45 28 -38 35 9 8 65 -23 71 -40 8 -21 -21 -35 -61 -29 -23 4 -37 14
-47 33 -18 35 -9 44 16 19 11 -11 31 -24 45 -29z m464 -24 c-13 -13 -35 7 -25
24 5 8 11 8 21 -1 10 -8 12 -15 4 -23z m64 -7 c-3 -5 0 -9 6 -9 6 0 2 -17 -10
-40 -11 -22 -24 -40 -29 -40 -24 0 -51 73 -31 85 6 4 20 -1 31 -11 20 -18 27
-6 8 13 -17 17 -1 37 17 22 7 -6 11 -15 8 -20z m-890 -201 c-13 -21 -25 -38
-27 -38 -1 0 -1 34 1 75 2 41 -1 75 -6 75 -5 0 -20 -16 -35 -36 l-26 -37 -14
34 c-8 19 -22 43 -30 54 -16 20 -18 18 -83 -91 -9 -16 -14 -13 -52 27 -36 39
-39 46 -26 59 14 13 17 13 33 -6 l17 -22 54 45 53 44 32 -31 c17 -16 33 -30
36 -30 3 0 23 23 44 52 l40 52 7 -95 c6 -89 5 -96 -18 -131z m379 168 c32 -10
17 -22 -23 -18 -33 3 -44 10 -56 34 l-15 29 38 -20 c21 -11 46 -22 56 -25z
m276 -11 c12 -31 21 -58 21 -61 0 -3 12 -29 26 -59 l26 -53 -26 -38 -26 -39 0
38 c0 34 -4 40 -35 53 -45 18 -45 18 -45 -13 0 -16 -3 -38 -6 -50 -6 -21 -7
-21 -33 -6 -14 10 -27 18 -29 18 -1 1 5 17 15 36 9 18 17 51 18 74 2 39 52
155 66 155 4 0 17 -25 28 -55z m-224 -37 c7 -6 -7 -8 -40 -4 -31 3 -40 2 -25
-2 l25 -8 -23 -6 c-20 -6 -42 14 -42 37 0 10 93 -5 105 -17z m62 -48 c18 -13
30 -27 27 -32 -3 -4 -15 2 -27 15 -12 12 -28 23 -34 23 -27 2 -33 4 -33 12 0
16 35 6 67 -18z m-87 11 c0 -12 -29 -23 -41 -15 -18 10 -9 24 16 24 14 0 25
-4 25 -9z m33 -63 c4 -39 1 -47 -37 -85 -22 -24 -44 -43 -50 -43 -5 0 -18 -7
-28 -17 -10 -9 -21 -14 -24 -11 -9 10 7 78 22 93 8 7 14 18 14 23 0 5 7 15 15
22 14 11 14 10 6 -14 -6 -14 -17 -39 -26 -56 -8 -16 -15 -31 -15 -34 0 -2 25
12 55 32 51 34 55 39 55 75 0 38 -1 39 -27 33 -27 -6 -27 -6 -9 9 32 24 44 18
49 -27z m-23 -7 c0 -10 -9 -29 -20 -42 -17 -21 -19 -21 -13 -4 6 18 5 19 -12
5 -17 -14 -17 -14 -7 5 6 11 16 27 22 35 9 12 10 10 5 -9 -5 -16 -4 -21 4 -17
6 4 11 16 11 27 0 10 2 19 5 19 3 0 5 -9 5 -19z m470 -49 c7 2 14 -2 17 -8 3
-10 -116 -37 -125 -29 -2 2 -1 13 3 25 5 16 10 19 20 10 11 -9 17 -7 27 9 11
18 14 19 29 5 9 -8 22 -14 29 -12z m-613 -82 c-14 -20 -14 -19 -26 6 -10 22
-8 28 11 44 23 18 23 18 26 -6 2 -13 -3 -33 -11 -44z m87 -33 c-16 -19 -34
-42 -40 -52 -13 -24 -34 -11 -34 20 0 18 8 26 34 35 19 6 40 18 47 26 6 8 14
12 17 10 2 -3 -8 -21 -24 -39z"/>
<path d="M1290 1490 c0 -5 5 -10 10 -10 6 0 10 5 10 10 0 6 -4 10 -10 10 -5 0
-10 -4 -10 -10z"/>
<path d="M1462 340 c-18 -51 -15 -63 29 -94 l41 -29 -7 34 c-4 19 -17 54 -30
78 l-22 44 -11 -33z"/>
<path d="M1245 1421 c-3 -5 -2 -12 3 -15 5 -3 9 1 9 9 0 17 -3 19 -12 6z"/>
</g>
</svg>
